<?xml version="1.0" encoding="UTF-8"?>
<svg width="128" height="128" version="1.1" xmlns="http://www.w3.org/2000/svg"><title>© 2024 NinStar</title><g><rect x="2" y="2" width="124" height="124" rx="14" fill="#242424" stroke="#171717" stroke-width="4"/><path d="m63.953 19.418c-5.2293 0.349-12.854 24.05-14.98 26.289-2.5957 2.7343-28.872 1.2301-30.458 6.6136-1.741 5.9075 22.306 20.676 21.538 23.62-10.78 41.315-5.1219 31.692 21.426 18.365 1.0738-0.539 1.7014-0.93 2.5209-1.0681 0.819 0.1378 1.448 0.5291 2.5232 1.0681 2.0119 1.01 3.8968 1.9962 5.6706 2.9431-2.6521 2.652-5.7914 5.7914-8.2412 8.2413l-7.5233-7.5231c-0.6957 0.3705-1.3501 0.7249-2.0103 1.0819l9.5336 9.5337 43.64-43.64-3.2-3.2001c-0.2195 0.2071-0.4218 0.411-0.6475 0.6188-0.3116 0.2864-0.6433 0.5742-0.9649 0.8615l1.7199 1.7198c-4.9678 4.9678-9.7263 9.7264-14.853 14.853-0.3647-1.1873-1.37-2.5913-1.6997-3.8547-0.7676-2.9435 23.28-17.712 21.538-23.62-1.5851-5.3835-27.861-3.8793-30.456-6.6136-2.1257-2.2394-9.7506-25.94-14.982-26.289zm-8.406 10.291-17.337 17.337c0.1099-0.014 0.2315-0.018 0.3416-0.028 1.1036-0.092 2.0691-0.1911 3.0676-0.2884l11.43-11.43c0.507-1.1773 1.0171-2.3659 1.5608-3.5683 0.3075-0.6798 0.6212-1.3536 0.9368-2.0217zm16.99 0.1768c0.2873 0.6112 0.5743 1.2247 0.8549 1.8451 0.5695 1.2595 1.1061 2.5076 1.6351 3.7374l11.251 11.251c1.0278 0.1016 2.0312 0.204 3.1726 0.2982 0.076 0 0.1608 0.013 0.2379 0.019zm-16.802 24.324c1.5651 0 2.8339 3.8069 2.8339 8.503s-1.2688 8.5031-2.8339 8.5031c-1.5652 0-2.8341-3.807-2.8341-8.5031s1.2689-8.503 2.8341-8.503zm16.533 0c1.5638 0 2.8347 3.8069 2.8347 8.503s-1.2709 8.5031-2.8347 8.5031c-1.5672 0-2.8348-3.807-2.8348-8.5031s1.2676-8.503 2.8348-8.503zm-48.708 7.4857-3.2466 3.2467 17.379 17.379c0.1924-0.7703 0.4209-1.6486 0.6287-2.4638l-14.915-14.915 1.7647-1.7648c-0.3043-0.2724-0.6192-0.5451-0.9144-0.8167-0.2429-0.2233-0.4608-0.4428-0.6962-0.6652z" color="#000000" color-rendering="auto" dominant-baseline="auto" fill="#e5e5e5" image-rendering="auto" shape-rendering="auto" solid-color="#000000" stop-color="#000000" style="font-feature-settings:normal;font-variant-alternates:normal;font-variant-caps:normal;font-variant-east-asian:normal;font-variant-ligatures:normal;font-variant-numeric:normal;font-variant-position:normal;font-variation-settings:normal;inline-size:0;isolation:auto;mix-blend-mode:normal;paint-order:markers stroke fill;shape-margin:0;shape-padding:0;text-decoration-color:#000000;text-decoration-line:none;text-decoration-style:solid;text-indent:0;text-orientation:mixed;text-transform:none;white-space:normal"/><ellipse cx="66.068" cy="90.04" rx="7.8067" ry="8.165" fill="#242424" style="paint-order:markers stroke fill"/></g><path d="m72.911 77.005h6.7705v23.199q0 6.87-2.763 10.106-3.7087 4.381-11.176 4.381-3.9826 0-6.6958-0.9958-2.7131-0.9957-4.5799-2.9371-1.867-1.9166-2.763-4.6796h7.4923q0.9956 1.145 2.5638 1.7175 1.5682 0.5974 3.7088 0.5974 2.7381 0 4.4058-0.8463t2.3399-2.1905q0.6969-1.3441 0.6969-4.6298-1.7923 1.7922-3.7587 2.5888-1.9664 0.7716-4.4554 0.7716-5.4513 0-9.2099-3.9329-3.7587-3.9328-3.7587-9.9565 0-6.447 3.9827-10.355 3.6092-3.5346 8.6125-3.5346 2.3398 0 4.4057 0.8712 2.0909 0.8463 4.1818 2.8128zm-7.0443 5.6503q-3.211 0-5.3019 2.1656-2.0909 2.1407-2.0909 5.4014 0 3.3852 2.1406 5.5508 2.1408 2.1656 5.3766 2.1656 3.1612 0 5.2024-2.1158 2.066-2.1158 2.066-5.5508 0-3.3853-2.066-5.501-2.0661-2.1158-5.3268-2.1158zm40.698-16.105h6.7704v37.536h-6.7704v-2.8626q-1.9914 1.8918-4.0076 2.7381-1.9913 0.8214-4.3311 0.8214-5.2522 0-9.0854-4.0573-3.8333-4.0822-3.8333-10.131 0-6.2728 3.7088-10.28 3.7089-4.0076 9.0108-4.0076 2.4394 0 4.5799 0.921 2.1407 0.921 3.9579 2.763zm-7.1439 16.03q-3.1613 0-5.2521 2.2402-2.0908 2.2153-2.0908 5.7002 0 3.5096 2.1157 5.7748 2.1407 2.2651 5.2521 2.2651 3.211 0 5.3267-2.2153 2.1158-2.2404 2.1158-5.8496 0-3.5345-2.1158-5.725-2.1157-2.1904-5.3516-2.1904z" fill="#6096d3" stroke="#242424" stroke-linecap="square" stroke-width="4" style="paint-order:markers stroke fill" aria-label="gd"/></svg>
