<?xml version="1.0" encoding="UTF-8"?>
<svg width="128" height="128" version="1.1" xmlns="http://www.w3.org/2000/svg"><title>© 2024 NinStar</title><rect x="1.113e-5" width="128" height="128" fill="#242424" stroke="#171717" stroke-width="4.129"/><g transform="translate(0,6)"><g transform="matrix(.48231 0 0 .48231 -2988 -529.98)" stroke-linecap="square" stroke-width="8"><path d="m6276.7 1203.6h13.886v47.582q0 14.091-5.6669 20.728-7.6069 8.9854-22.923 8.9854-8.1685 0-13.733-2.0421-5.5648-2.0422-9.3938-6.0243-3.829-3.9311-5.6669-9.598h15.367q2.0422 2.3484 5.2585 3.5226 3.2164 1.2253 7.6069 1.2253 5.6159 0 9.0365-1.7358 3.4205-1.7358 4.799-4.4927 1.4295-2.7569 1.4295-9.4959-3.6759 3.6759-7.7091 5.3096-4.0332 1.5826-9.1385 1.5826-11.181 0-18.89-8.0664t-7.709-20.421q0-13.223 8.1685-21.238 7.4027-7.2496 17.664-7.2496 4.799 0 9.0364 1.7869 4.2885 1.7358 8.577 5.769zm-14.448 11.589q-6.5859 0-10.874 4.4416-4.2885 4.3906-4.2885 11.079 0 6.9432 4.3906 11.385 4.3905 4.4417 11.028 4.4417 6.4837 0 10.67-4.3396 4.2374-4.3395 4.2374-11.385 0-6.9433-4.2374-11.283t-10.925-4.3395zm83.472-33.032h13.886v76.988h-13.886v-5.8711q-4.0842 3.88-8.2196 5.6158-4.0842 1.6848-8.8832 1.6848-10.772 0-18.634-8.3217-7.8622-8.3727-7.8622-20.779 0-12.866 7.6069-21.085 7.6069-8.2196 18.481-8.2196 5.0032 0 9.3937 1.889 4.3906 1.8889 8.1175 5.6669zm-14.652 32.878q-6.4837 0-10.772 4.5948-4.2885 4.5437-4.2885 11.691 0 7.1985 4.3396 11.844 4.3905 4.6459 10.772 4.6459 6.5859 0 10.925-4.5437 4.3395-4.5948 4.3395-11.998 0-7.2495-4.3395-11.742t-10.976-4.4927z" fill="#6096d3" style="paint-order:markers stroke fill"/><path d="m6375.7 1184h14.959c8.5767 0 14.363 0.3744 17.358 1.1232 4.2885 1.0551 7.7941 3.2333 10.517 6.5348 2.7228 3.2674 4.0842 7.3857 4.0842 12.355 0 5.0032-1.3274 9.1385-3.9821 12.406-2.6548 3.2334-6.3135 5.4117-10.976 6.5348-3.4035 0.8169-9.7682 1.2253-19.094 1.2253h-5.3606v34.92h-7.5048zm7.5048 7.3006v25.527l12.712 0.1532c5.1393 0 8.9003-0.4595 11.283-1.3784 2.3825-0.953 4.2545-2.4676 5.6159-4.5438 1.3614-2.1102 2.0421-4.4586 2.0421-7.0453 0-2.5187-0.6807-4.8161-2.0421-6.8922-1.3614-2.1102-3.1653-3.6078-5.4116-4.4927-2.2123-0.8849-5.854-1.3274-10.925-1.3274z" fill="#e5e5e5" style="paint-order:markers stroke fill"/></g><g transform="translate(-21.49 11.216)"><path d="m64.018 11.076-8.2949 8.2949-3.6348 0.52734 1.5723 1.5352-2.0352 2.0352 5.8145 5.8145-0.79492 4.6406 3.5625-1.873 3.8105 3.8105 12.393-12.393-2.0371-2.0371 1.5742-1.5332-3.6348-0.52734zm0 2.8418 2.8965 5.8691 6.4785 0.94141-4.7012 4.5625 0.53516 3.1152-1.9883 1.9902-3.2207-1.6934-5.7949 3.0469 1.1074-6.4512-4.6875-4.5703 6.4785-0.94141zm2.3203 6.9316-2.2188 3.377h1.4219l1.4355-2.1855zm-3.9316 0.07031-2.2109 3.2891 0.02539 0.01758h1.3945l0.79883-1.1875 0.80469 1.1758 0.69141-1.0938zm8.4297 9.7695-1.9219 1.9316 2.4766 1.3027z" color="#000000" fill="#6096d3" style="-inkscape-stroke:none;paint-order:markers stroke fill"/></g></g></svg>
