<?xml version="1.0" encoding="UTF-8"?>
<svg width="512" height="128" version="1.1" xmlns="http://www.w3.org/2000/svg"><title>© 2024 NinStar</title><g transform="translate(13.62 7.0188)"><g transform="translate(-6233.2 -1166.9)" stroke-linecap="square" stroke-width="8"><path d="m6276.7 1203.6h13.886v47.582q0 14.091-5.6669 20.728-7.6069 8.9854-22.923 8.9854-8.1685 0-13.733-2.0421-5.5648-2.0422-9.3938-6.0243-3.829-3.9311-5.6669-9.598h15.367q2.0422 2.3484 5.2585 3.5226 3.2164 1.2253 7.6069 1.2253 5.6159 0 9.0365-1.7358 3.4205-1.7358 4.799-4.4927 1.4295-2.7569 1.4295-9.4959-3.6759 3.6759-7.7091 5.3096-4.0332 1.5826-9.1385 1.5826-11.181 0-18.89-8.0664t-7.709-20.421q0-13.223 8.1685-21.238 7.4027-7.2496 17.664-7.2496 4.799 0 9.0364 1.7869 4.2885 1.7358 8.577 5.769zm-14.448 11.589q-6.5859 0-10.874 4.4416-4.2885 4.3906-4.2885 11.079 0 6.9432 4.3906 11.385 4.3905 4.4417 11.028 4.4417 6.4837 0 10.67-4.3396 4.2374-4.3395 4.2374-11.385 0-6.9433-4.2374-11.283t-10.925-4.3395zm83.472-33.032h13.886v76.988h-13.886v-5.8711q-4.0842 3.88-8.2196 5.6158-4.0842 1.6848-8.8832 1.6848-10.772 0-18.634-8.3217-7.8622-8.3727-7.8622-20.779 0-12.866 7.6069-21.085 7.6069-8.2196 18.481-8.2196 5.0032 0 9.3937 1.889 4.3906 1.8889 8.1175 5.6669zm-14.652 32.878q-6.4837 0-10.772 4.5948-4.2885 4.5437-4.2885 11.691 0 7.1985 4.3396 11.844 4.3905 4.6459 10.772 4.6459 6.5859 0 10.925-4.5437 4.3395-4.5948 4.3395-11.998 0-7.2495-4.3395-11.742t-10.976-4.4927z" fill="#6096d3" style="paint-order:markers stroke fill"/><path d="m6375.7 1184h14.959q12.865 0 17.358 1.1232 6.4327 1.5826 10.517 6.5348 4.0842 4.9011 4.0842 12.355 0 7.5048-3.9821 12.406-3.9822 4.8501-10.976 6.5348-5.1053 1.2253-19.094 1.2253h-5.3606v34.92h-7.5048zm7.5048 7.3006v25.527l12.712 0.1532q7.709 0 11.283-1.3784 3.5738-1.4295 5.6159-4.5438 2.0421-3.1653 2.0421-7.0453 0-3.778-2.0421-6.8922-2.0421-3.1653-5.4116-4.4927-3.3185-1.3274-10.925-1.3274zm50.543 12.253h7.3006v8.1175q3.2674-4.799 6.8922-7.1475 3.6248-2.3995 7.5559-2.3995 2.9611 0 6.3306 1.889l-3.7269 6.0243q-2.2463-0.9701-3.7779-0.9701-3.5738 0-6.8922 2.9611-3.3185 2.9101-5.0543 9.0875-1.3274 4.748-1.3274 19.196v18.788h-7.3006zm60.447-1.4295q12.814 0 21.238 9.2917 7.658 8.4748 7.658 20.064 0 11.64-8.1175 20.37-8.0664 8.6791-20.779 8.6791-12.763 0-20.881-8.6791-8.0664-8.7301-8.0664-20.37 0-11.538 7.6579-20.013 8.4238-9.3428 21.289-9.3428zm0 6.9943q-8.8832 0-15.265 6.5859-6.3816 6.5858-6.3816 15.929 0 6.0243 2.91 11.232t7.8622 8.0664q4.9522 2.8079 10.874 2.8079 5.9222 0 10.874-2.8079 4.9521-2.859 7.8622-8.0664 2.91-5.2074 2.91-11.232 0-9.3428-6.4327-15.929-6.3817-6.5859-15.214-6.5859zm44.825-28.437q2.4506 0 4.1353 1.7358 1.7359 1.7358 1.7359 4.1863 0 2.3995-1.7359 4.1353-1.6847 1.7359-4.1353 1.7359-2.4505 0-4.1863-1.7359-1.6848-1.7358-1.6848-4.1353 0-2.4505 1.6848-4.1863 1.7358-1.7358 4.1863-1.7358zm-3.5226 22.872h7.2495v63.919q0 6.9943-2.5526 10.16-2.5017 3.2164-6.8922 3.2164-3.6248 0-8.1685-1.7358v-6.4327q2.8589 1.4805 5.1563 1.4805 2.9101 0 4.3396-2.3995 0.8679-1.5316 0.8679-6.3816zm68.871 37.116 6.0243 3.1653q-2.9611 5.8201-6.8412 9.3938-3.88 3.5737-8.7301 5.4627-4.85 1.8379-10.976 1.8379-13.58 0-21.238-8.8833-7.6579-8.9343-7.6579-20.166 0-10.568 6.4837-18.839 8.2196-10.517 22.004-10.517 14.193 0 22.668 10.772 6.0243 7.607 6.1264 18.992h-49.93q0.2042 9.7002 6.1775 15.929 5.9732 6.1775 14.754 6.1775 4.2375 0 8.2196-1.4806 4.0332-1.4805 6.8411-3.9311 2.808-2.4505 6.0754-7.9132zm0-14.959q-1.4295-5.718-4.1864-9.1385-2.7058-3.4206-7.1985-5.5138t-9.4448-2.0932q-8.1686 0-14.04 5.2585-4.2884 3.829-6.4837 11.487zm75.099-10.619-5.6669 3.5227q-7.3517-9.7512-20.064-9.7512-10.16 0-16.899 6.5348-6.6879 6.5349-6.6879 15.878 0 6.0753 3.0631 11.436 3.1143 5.3606 8.4749 8.3217 5.4116 2.9611 12.1 2.9611 12.253 0 20.013-9.7512l5.6669 3.7269q-3.9822 5.9732-10.721 9.2917-6.688 3.2674-15.265 3.2674-13.172 0-21.851-8.3727-8.679-8.3728-8.679-20.37 0-8.0664 4.0332-14.959 4.0842-6.9432 11.181-10.823 7.0964-3.8801 15.878-3.8801 5.5137 0 10.619 1.6848 5.1564 1.6847 8.7301 4.3905 3.5738 2.7059 6.0754 6.8922zm19.962-32.164h7.1985v20.626h11.334v6.1264h-11.334v49.42h-7.1985v-49.42h-9.7512v-6.1264h9.7512z" fill="#e5e5e5" style="paint-order:markers stroke fill"/></g><path d="m51.088 0c-1.6848 0.1124-4.1415 7.7491-4.8264 8.4707-0.8363 0.8809-9.3026 0.3963-9.8138 2.1308-0.5609 1.9035 7.1873 6.6618 6.9399 7.6101-3.4733 13.312-1.6506 10.211 6.9034 5.9171 0.346-0.1736 0.5483-0.2996 0.8123-0.3441 0.2639 0.045 0.4667 0.1705 0.8131 0.3441 0.6482 0.3254 1.2557 0.6436 1.8272 0.9487l-2.6557 2.6552-2.4237-2.4242c-0.2241 0.1194-0.4352 0.2339-0.6479 0.3489l3.0716 3.0717 14.061-14.061-1.031-1.0311c-0.071 0.066-0.136 0.1326-0.2087 0.1996-0.1004 0.092-0.2072 0.1849-0.3108 0.2775l0.554 0.554c-1.6007 1.6007-3.1338 3.1339-4.7856 4.7857-0.1175-0.3825-0.4413-0.8348-0.5476-1.2419-0.2473-0.9483 7.5008-5.7066 6.9395-7.6101-0.5108-1.7345-8.9767-1.2499-9.813-2.1308-0.6849-0.7216-3.1416-8.3583-4.8272-8.4707zm-33.26 3.1233c-0.359 0-0.6687 0.13-0.9285 0.3898-0.2597 0.2597-0.3892 0.5732-0.3892 0.9398 0 0.3592 0.1295 0.6683 0.3892 0.9281 0.2598 0.2597 0.5695 0.3897 0.9285 0.3897 0.3666 0 0.6797-0.13 0.9394-0.3897 0.2597-0.2598 0.3897-0.5689 0.3897-0.9281 0-0.3666-0.13-0.6801-0.3897-0.9398-0.2597-0.2598-0.5728-0.3898-0.9394-0.3898zm30.551 0.1925-5.5862 5.5861c0.035 0 0.074-0.01 0.1101-0.01 0.3555-0.029 0.6668-0.062 0.9885-0.093l3.6828-3.6828c0.1633-0.3793 0.3275-0.7625 0.5028-1.1498 0.099-0.219 0.2003-0.4362 0.302-0.6514zm5.474 0.057c0.093 0.1969 0.1852 0.3945 0.2756 0.5944 0.1835 0.4057 0.3565 0.8079 0.5269 1.2042l3.6249 3.6253c0.3313 0.033 0.6546 0.066 1.0223 0.096 0.025 0 0.052 0.01 0.077 0.01zm14.816 0.072 0.2521 5.3056h1.1805l0.2635-5.3056zm-68.488 0.4239v16.856h1.7417v-12.742l11.115 12.742h0.3783v-16.856h-1.6614v12.902l-11.206-12.902zm28.062 4.068c-0.9168 0-1.7648 0.2141-2.5439 0.6418-0.7792 0.4201-1.4897 1.0579-2.1314 1.9135v-2.2344h-1.6039v12.467h1.6039v-4.5717c0-1.6424 0.077-2.7734 0.2293-3.3921 0.2445-0.9473 0.7485-1.7414 1.5124-2.383 0.7716-0.6417 1.6425-0.9627 2.6127-0.9627 0.8479 0 1.5355 0.2098 2.0625 0.63 0.5271 0.4124 0.886 1.0315 1.0771 1.8565 0.1222 0.4813 0.1836 1.4399 0.1836 2.8761v5.9469h1.5927v-6.4169c0-1.6958-0.1718-2.9446-0.5156-3.7466-0.3437-0.8022-0.8787-1.4404-1.6044-1.914-0.7181-0.4736-1.5431-0.7102-2.475-0.7102zm48.183 0c-0.9853 0-1.8028 0.313-2.4522 0.9395-0.6416 0.6264-0.9626 1.4134-0.9626 2.3606 0 0.7257 0.2027 1.3709 0.6076 1.9363 0.4048 0.5652 1.1684 1.1382 2.2913 1.7189 1.0466 0.5346 1.7191 0.9781 2.0169 1.3295 0.298 0.359 0.4468 0.7673 0.4468 1.2257 0 0.5576-0.2253 1.0429-0.676 1.4554-0.4508 0.4125-0.9969 0.6189-1.6386 0.6189-0.9167 0-1.7835-0.4621-2.6009-1.3865l-1.0087 1.1459c0.4278 0.55 0.9666 0.9813 1.6159 1.2945 0.6569 0.3132 1.3444 0.4699 2.0624 0.4699 1.0772 0 1.975-0.3552 2.693-1.0657 0.718-0.7103 1.077-1.5772 1.077-2.6008 0-0.7257-0.2101-1.379-0.6303-1.9596-0.4277-0.5728-1.2374-1.1689-2.4289-1.7876-0.9779-0.5042-1.6199-0.9434-1.9255-1.3177-0.3055-0.3666-0.4581-0.7525-0.4581-1.1573 0-0.4584 0.1831-0.8596 0.5498-1.2034 0.3743-0.3437 0.8215-0.5155 1.3409-0.5155 0.8174 0 1.6537 0.4162 2.5093 1.249l1.0315-1.0657c-1.1612-1.1229-2.3146-1.6843-3.4606-1.6843zm-59.401 0.3209v12.467h1.6154v-12.467zm31.414 2.9529c0.5044 0 0.9131 1.2267 0.9131 2.7398s-0.4087 2.7399-0.9131 2.7399c-0.5043 0-0.913-1.2268-0.913-2.7399s0.4087-2.7398 0.913-2.7398zm5.3272 0c0.5038 0 0.913 1.2267 0.913 2.7398s-0.4092 2.7399-0.913 2.7399c-0.5051 0-0.9136-1.2268-0.9136-2.7399s0.4085-2.7398 0.9136-2.7398zm-15.694 2.4124-1.046 1.046 5.5998 5.5992c0.062-0.2481 0.1355-0.5308 0.2024-0.7935l-4.8058-4.8057 0.5686-0.5687c-0.098-0.088-0.1994-0.1759-0.2945-0.2634-0.079-0.072-0.1486-0.1423-0.2245-0.2139z" color="#000000" color-rendering="auto" dominant-baseline="auto" fill="#6096d3" image-rendering="auto" shape-rendering="auto" solid-color="#000000" stop-color="#000000" style="font-feature-settings:normal;font-variant-alternates:normal;font-variant-caps:normal;font-variant-east-asian:normal;font-variant-ligatures:normal;font-variant-numeric:normal;font-variant-position:normal;font-variation-settings:normal;inline-size:0;isolation:auto;mix-blend-mode:normal;paint-order:markers stroke fill;shape-margin:0;shape-padding:0;text-decoration-color:#000000;text-decoration-line:none;text-decoration-style:solid;text-indent:0;text-orientation:mixed;text-transform:none;white-space:normal"/></g></svg>
