<?xml version="1.0" encoding="UTF-8"?>
<svg width="512" height="128" version="1.1" xmlns="http://www.w3.org/2000/svg"><title>© 2024 NinStar</title><g transform="translate(-6219.6 -1159.9)" stroke-linecap="square" stroke-width="8"><path d="m6276.7 1203.6h13.886v47.582q0 14.091-5.6669 20.728-7.6069 8.9854-22.923 8.9854-8.1685 0-13.733-2.0421-5.5648-2.0422-9.3938-6.0243-3.829-3.9311-5.6669-9.598h15.367q2.0422 2.3484 5.2585 3.5226 3.2164 1.2253 7.6069 1.2253 5.6159 0 9.0365-1.7358 3.4205-1.7358 4.799-4.4927 1.4295-2.7569 1.4295-9.4959-3.6759 3.6759-7.7091 5.3096-4.0332 1.5826-9.1385 1.5826-11.181 0-18.89-8.0664t-7.709-20.421q0-13.223 8.1685-21.238 7.4027-7.2496 17.664-7.2496 4.799 0 9.0364 1.7869 4.2885 1.7358 8.577 5.769zm-14.448 11.589q-6.5859 0-10.874 4.4416-4.2885 4.3906-4.2885 11.079 0 6.9432 4.3906 11.385 4.3905 4.4417 11.028 4.4417 6.4837 0 10.67-4.3396 4.2374-4.3395 4.2374-11.385 0-6.9433-4.2374-11.283t-10.925-4.3395zm83.472-33.032h13.886v76.988h-13.886v-5.8711q-4.0842 3.88-8.2196 5.6158-4.0842 1.6848-8.8832 1.6848-10.772 0-18.634-8.3217-7.8622-8.3727-7.8622-20.779 0-12.866 7.6069-21.085 7.6069-8.2196 18.481-8.2196 5.0032 0 9.3937 1.889 4.3906 1.8889 8.1175 5.6669zm-14.652 32.878q-6.4837 0-10.772 4.5948-4.2885 4.5437-4.2885 11.691 0 7.1985 4.3396 11.844 4.3905 4.6459 10.772 4.6459 6.5859 0 10.925-4.5437 4.3395-4.5948 4.3395-11.998 0-7.2495-4.3395-11.742t-10.976-4.4927z" fill="#6096d3" style="paint-order:markers stroke fill"/><path d="m6375.7 1184h14.959q12.865 0 17.358 1.1232 6.4327 1.5826 10.517 6.5348 4.0842 4.9011 4.0842 12.355 0 7.5048-3.9821 12.406-3.9822 4.8501-10.976 6.5348-5.1053 1.2253-19.094 1.2253h-5.3606v34.92h-7.5048zm7.5048 7.3006v25.527l12.712 0.1532q7.709 0 11.283-1.3784 3.5738-1.4295 5.6159-4.5438 2.0421-3.1653 2.0421-7.0453 0-3.778-2.0421-6.8922-2.0421-3.1653-5.4116-4.4927-3.3185-1.3274-10.925-1.3274zm50.543 12.253h7.3006v8.1175q3.2674-4.799 6.8922-7.1475 3.6248-2.3995 7.5559-2.3995 2.9611 0 6.3306 1.889l-3.7269 6.0243q-2.2463-0.9701-3.7779-0.9701-3.5738 0-6.8922 2.9611-3.3185 2.9101-5.0543 9.0875-1.3274 4.748-1.3274 19.196v18.788h-7.3006zm60.447-1.4295q12.814 0 21.238 9.2917 7.658 8.4748 7.658 20.064 0 11.64-8.1175 20.37-8.0664 8.6791-20.779 8.6791-12.763 0-20.881-8.6791-8.0664-8.7301-8.0664-20.37 0-11.538 7.6579-20.013 8.4238-9.3428 21.289-9.3428zm0 6.9943q-8.8832 0-15.265 6.5859-6.3816 6.5858-6.3816 15.929 0 6.0243 2.91 11.232t7.8622 8.0664q4.9522 2.8079 10.874 2.8079 5.9222 0 10.874-2.8079 4.9521-2.859 7.8622-8.0664 2.91-5.2074 2.91-11.232 0-9.3428-6.4327-15.929-6.3817-6.5859-15.214-6.5859zm44.825-28.437q2.4506 0 4.1353 1.7358 1.7359 1.7358 1.7359 4.1863 0 2.3995-1.7359 4.1353-1.6847 1.7359-4.1353 1.7359-2.4505 0-4.1863-1.7359-1.6848-1.7358-1.6848-4.1353 0-2.4505 1.6848-4.1863 1.7358-1.7358 4.1863-1.7358zm-3.5226 22.872h7.2495v63.919q0 6.9943-2.5526 10.16-2.5017 3.2164-6.8922 3.2164-3.6248 0-8.1685-1.7358v-6.4327q2.8589 1.4805 5.1563 1.4805 2.9101 0 4.3396-2.3995 0.8679-1.5316 0.8679-6.3816zm68.871 37.116 6.0243 3.1653q-2.9611 5.8201-6.8412 9.3938-3.88 3.5737-8.7301 5.4627-4.85 1.8379-10.976 1.8379-13.58 0-21.238-8.8833-7.6579-8.9343-7.6579-20.166 0-10.568 6.4837-18.839 8.2196-10.517 22.004-10.517 14.193 0 22.668 10.772 6.0243 7.607 6.1264 18.992h-49.93q0.2042 9.7002 6.1775 15.929 5.9732 6.1775 14.754 6.1775 4.2375 0 8.2196-1.4806 4.0332-1.4805 6.8411-3.9311 2.808-2.4505 6.0754-7.9132zm0-14.959q-1.4295-5.718-4.1864-9.1385-2.7058-3.4206-7.1985-5.5138t-9.4448-2.0932q-8.1686 0-14.04 5.2585-4.2884 3.829-6.4837 11.487zm75.099-10.619-5.6669 3.5227q-7.3517-9.7512-20.064-9.7512-10.16 0-16.899 6.5348-6.6879 6.5349-6.6879 15.878 0 6.0753 3.0631 11.436 3.1143 5.3606 8.4749 8.3217 5.4116 2.9611 12.1 2.9611 12.253 0 20.013-9.7512l5.6669 3.7269q-3.9822 5.9732-10.721 9.2917-6.688 3.2674-15.265 3.2674-13.172 0-21.851-8.3727-8.679-8.3728-8.679-20.37 0-8.0664 4.0332-14.959 4.0842-6.9432 11.181-10.823 7.0964-3.8801 15.878-3.8801 5.5137 0 10.619 1.6848 5.1564 1.6847 8.7301 4.3905 3.5738 2.7059 6.0754 6.8922zm19.962-32.164h7.1985v20.626h11.334v6.1264h-11.334v49.42h-7.1985v-49.42h-9.7512v-6.1264h9.7512z" fill="#e5e5e5" style="paint-order:markers stroke fill"/></g><path d="m64.018 11.076-8.2949 8.2949-3.6348 0.52734 1.5723 1.5352-2.0352 2.0352 5.8145 5.8145-0.79492 4.6406 3.5625-1.873 3.8105 3.8105 12.393-12.393-2.0371-2.0371 1.5742-1.5332-3.6348-0.52734zm0 2.8418 2.8965 5.8691 6.4785 0.94141-4.7012 4.5625 0.53516 3.1152-1.9883 1.9902-3.2207-1.6934-5.7949 3.0469 1.1074-6.4512-4.6875-4.5703 6.4785-0.94141zm-38.441 0.57812v11.279l-12.033-11.141v18.572h3.1699v-11.318l12.035 11.143v-18.535zm52.506 0.82617 0.02344 0.50391 0.26367 5.5645h2.0527l0.30078-6.0684zm-46.179 3.877v14.008h2.6738v-14.008zm11.693 0c-1.4637 0-2.928 0.60949-4.0254 1.7168l-1.8223-1.6816v13.973h2.6738v-7.6016c0-2.7833 1.5855-3.7305 3.1738-3.7305 1.5883 0 3.1757 0.94735 3.1758 3.7305l-0.02148 7.5977 2.6758 0.0078 0.01953-7.6035v-2e-3c0-3.974-2.9006-6.4062-5.8242-6.4062zm41.453 0.44531c-1.0499 0-1.9934 0.33914-2.6934 1.0391l-2e-3 2e-3c-0.69573 0.69573-1.0703 1.5952-1.0703 2.6152 0 0.78779 0.22764 1.5195 0.67383 2.1426 0.46661 0.65149 1.1186 1.8027 2.375 1.8027h2e-3c0.98333 0.50228 1.603 0.94181 1.7891 1.1602 0.22155 0.2675 0.31836 0.53482 0.31836 0.87109 0 0.4069-0.14024 0.72101-0.49414 1.0449-0.34994 0.32021-0.73772 0.46875-1.252 0.46875-0.72033 0-1.4133-0.34932-2.1406-1.1719l-0.36133-0.4082-1.5938 1.8105 0.24414 0.31445c0.45695 0.58748 1.038 1.0516 1.7246 1.3828l2e-3 2e-3c0.69345 0.33063 1.4306 0.49805 2.1914 0.49805 1.1422 0 2.1533-0.39583 2.9297-1.1641 0.77294-0.76465 1.1797-1.7464 1.1797-2.8438 0-0.79106-0.2391-1.5322-0.69922-2.168l-2e-3 -2e-3 -2e-3 -0.0039c-0.48992-0.65612-1.3206-1.2469-2.5-1.8594h-2e-3c-0.91596-0.47226-1.4974-0.89728-1.6992-1.1445l-4e-3 -4e-3c-0.23808-0.2857-0.33008-0.53612-0.33008-0.80469 0-0.31294 0.10208-0.54894 0.37695-0.80664 0.27772-0.25426 0.56826-0.36719 0.96094-0.36719 0.62316 0 1.3118 0.31856 2.0801 1.0664l0.3457 0.33594 1.6621-1.7188-0.3457-0.33398c-1.1741-1.1353-2.4044-1.7559-3.6641-1.7559zm-18.711 1.2051-2.2188 3.377h1.4219l1.4355-2.1855zm-3.9316 0.07031-2.2109 3.2891 0.02539 0.01758h1.3945l0.79883-1.1875 0.80469 1.1758 0.69141-1.0938zm8.4297 9.7695-1.9219 1.9316 2.4766 1.3027z" color="#000000" fill="#6096d3" style="-inkscape-stroke:none;paint-order:markers stroke fill"/><g transform="matrix(.024767 0 0 .024767 -386.42 -36.846)" fill="#6096d3"></g></svg>
