<?xml version="1.0" encoding="UTF-8"?>
<svg width="576" height="576" version="1.1" xmlns="http://www.w3.org/2000/svg"><defs><clipPath id="f"><rect x="224" y="32" width="128" height="128" style="paint-order:markers stroke fill"/></clipPath><clipPath id="e"><rect x="416" y="32" width="128" height="128" style="paint-order:markers stroke fill"/></clipPath><clipPath id="d"><rect x="416" y="224" width="128" height="128" style="paint-order:markers stroke fill"/></clipPath><clipPath id="c"><rect x="224" y="416" width="128" height="128" style="paint-order:markers stroke fill"/></clipPath><clipPath id="b"><rect x="32" y="416" width="128" height="128" style="paint-order:markers stroke fill"/></clipPath><clipPath id="a"><rect x="32" y="224" width="128" height="128" style="paint-order:markers stroke fill"/></clipPath></defs><title>© 2024 NinStar</title><path d="m38.549 3.3e-4c-21.079 0-38.549 17.47-38.549 38.549v114.9c0 21.079 17.47 38.549 38.549 38.549h114.9c21.079 0 38.549-17.47 38.549-38.549v-114.9c0-21.079-17.47-38.549-38.549-38.549zm0 32h114.9c3.9044 0 6.5488 2.6445 6.5488 6.5488v114.9c0 3.9044-2.6445 6.5488-6.5488 6.5488h-114.9c-3.9044 0-6.5488-2.6445-6.5488-6.5488v-114.9c0-3.9044 2.6445-6.5488 6.5488-6.5488z" color="#000000" fill="#6096d3" style="-inkscape-stroke:none"/><path d="m64 3.3e-4v32h32v-32zm64 0v32h32v-31.389c-2.1355-0.37561-4.3159-0.61133-6.5488-0.61133zm32 32v32h32v-25.451c0-2.2329-0.23572-4.4134-0.61133-6.5488zm-128-31.389c-15.888 2.7945-28.594 15.501-31.389 31.389h31.389zm0 31.389v6.5488c0-3.9044 2.6445-6.5488 6.5488-6.5488zm-32 32v32h32v-32zm160 32v32h32v-32zm-160 32v25.451c0 2.2329 0.23572 4.4134 0.61133 6.5488h31.389v-32zm32 32v31.389c2.1355 0.37561 4.3159 0.61133 6.5488 0.61133h25.451v-32h-25.451zm128-6.5488c0 3.9044-2.6445 6.5488-6.5488 6.5488h6.5488zm0 6.5488v31.389c15.888-2.7945 28.594-15.501 31.389-31.389zm-64 0v32h32v-32z" color="#000000" fill="#226abb" opacity=".27863" style="-inkscape-stroke:none"/><rect x="32" y="32" width="128" height="128" fill="#296098" style="paint-order:markers stroke fill"/><g transform="translate(2e-4,6.6e-4)"><rect x="32" y="32" width="32" height="32" opacity=".25" style="paint-order:markers stroke fill"/><rect x="96" y="32" width="32" height="32" opacity=".25" style="paint-order:markers stroke fill"/><rect x="32" y="96" width="32" height="32" opacity=".25" style="paint-order:markers stroke fill"/><rect x="64" y="64" width="32" height="32" opacity=".25" style="paint-order:markers stroke fill"/><rect x="96" y="96" width="32" height="32" opacity=".25" style="paint-order:markers stroke fill"/><rect x="128" y="64" width="32" height="32" opacity=".25" style="paint-order:markers stroke fill"/><rect x="64" y="128" width="32" height="32" opacity=".25" style="paint-order:markers stroke fill"/><rect x="128" y="128" width="32" height="32" opacity=".25" style="paint-order:markers stroke fill"/></g><path d="m422.55 384c-21.079 0-38.549 17.47-38.549 38.549v114.9c0 21.079 17.47 38.549 38.549 38.549h114.9c21.079 0 38.549-17.47 38.549-38.549v-114.9c0-21.079-17.47-38.549-38.549-38.549zm0 32h114.9c3.9044 0 6.5488 2.6445 6.5488 6.5488v114.9c0 3.9044-2.6445 6.5488-6.5488 6.5488h-114.9c-3.9044 0-6.5488-2.6445-6.5488-6.5488v-114.9c0-3.9044 2.6445-6.5488 6.5488-6.5488z" color="#000000" fill="#6096d3" style="-inkscape-stroke:none"/><path d="m448 384v32h32v-32zm64 0v32h32v-31.389c-2.1355-0.37561-4.3159-0.61133-6.5488-0.61133zm32 32v32h32v-25.451c0-2.2329-0.23572-4.4134-0.61133-6.5488zm-128-31.389c-15.888 2.7945-28.594 15.501-31.389 31.389h31.389zm0 31.389v6.5488c0-3.9044 2.6445-6.5488 6.5488-6.5488zm-32 32v32h32v-32zm160 32v32h32v-32zm-160 32v25.451c0 2.2329 0.23572 4.4134 0.61133 6.5488h31.389v-32zm32 32v31.389c2.1355 0.37561 4.3159 0.61133 6.5488 0.61133h25.451v-32h-25.451zm128-6.5488c0 3.9044-2.6445 6.5488-6.5488 6.5488h6.5488zm0 6.5488v31.389c15.888-2.7945 28.594-15.501 31.389-31.389zm-64 0v32h32v-32z" color="#000000" fill="#226abb" opacity=".27863" style="-inkscape-stroke:none"/><rect x="416" y="416" width="128" height="128" fill="#296098" style="paint-order:markers stroke fill"/><g transform="translate(2e-4,6.6e-4)"><rect x="416" y="416" width="32" height="32" opacity=".25" style="paint-order:markers stroke fill"/><rect x="480" y="416" width="32" height="32" opacity=".25" style="paint-order:markers stroke fill"/><rect x="416" y="480" width="32" height="32" opacity=".25" style="paint-order:markers stroke fill"/><rect x="448" y="448" width="32" height="32" opacity=".25" style="paint-order:markers stroke fill"/><rect x="480" y="480" width="32" height="32" opacity=".25" style="paint-order:markers stroke fill"/><rect x="512" y="448" width="32" height="32" opacity=".25" style="paint-order:markers stroke fill"/><rect x="448" y="512" width="32" height="32" opacity=".25" style="paint-order:markers stroke fill"/><rect x="512" y="512" width="32" height="32" opacity=".25" style="paint-order:markers stroke fill"/></g><path d="m230.55 3.3e-4c-21.079 0-38.549 17.47-38.549 38.549v114.9c0 21.079 17.47 38.549 38.549 38.549h114.9c21.079 0 38.549-17.47 38.549-38.549v-114.9c0-21.079-17.47-38.549-38.549-38.549zm0 32h114.9c3.9044 0 6.5488 2.6445 6.5488 6.5488v114.9c0 3.9044-2.6445 6.5488-6.5488 6.5488h-114.9c-3.9044 0-6.5488-2.6445-6.5488-6.5488v-114.9c0-3.9044 2.6445-6.5488 6.5488-6.5488z" color="#000000" fill="#6096d3" style="-inkscape-stroke:none"/><path d="m256 3.3e-4v32h32v-32zm64 0v32h32v-31.389c-2.1355-0.37561-4.3159-0.61133-6.5488-0.61133zm32 32v32h32v-25.451c0-2.2329-0.23572-4.4134-0.61133-6.5488zm-128-31.389c-15.888 2.7945-28.594 15.501-31.389 31.389h31.389zm0 31.389v6.5488c0-3.9044 2.6445-6.5488 6.5488-6.5488zm-32 32v32h32v-32zm160 32v32h32v-32zm-160 32v25.451c0 2.2329 0.23572 4.4134 0.61133 6.5488h31.389v-32zm32 32v31.389c2.1355 0.37561 4.3159 0.61133 6.5488 0.61133h25.451v-32h-25.451zm128-6.5488c0 3.9044-2.6445 6.5488-6.5488 6.5488h6.5488zm0 6.5488v31.389c15.888-2.7945 28.594-15.501 31.389-31.389zm-64 0v32h32v-32z" color="#000000" fill="#226abb" opacity=".27863" style="-inkscape-stroke:none"/><rect x="224" y="32" width="128" height="128" fill="#296098" style="paint-order:markers stroke fill"/><path d="m422.55 3.3e-4c-21.079 0-38.549 17.47-38.549 38.549v114.9c0 21.079 17.47 38.549 38.549 38.549h114.9c21.079 0 38.549-17.47 38.549-38.549v-114.9c0-21.079-17.47-38.549-38.549-38.549zm0 32h114.9c3.9044 0 6.5488 2.6445 6.5488 6.5488v114.9c0 3.9044-2.6445 6.5488-6.5488 6.5488h-114.9c-3.9044 0-6.5488-2.6445-6.5488-6.5488v-114.9c0-3.9044 2.6445-6.5488 6.5488-6.5488z" color="#000000" fill="#6096d3" style="-inkscape-stroke:none"/><path d="m448 3.3e-4v32h32v-32zm64 0v32h32v-31.389c-2.1355-0.37561-4.3159-0.61133-6.5488-0.61133zm32 32v32h32v-25.451c0-2.2329-0.23572-4.4134-0.61133-6.5488zm-128-31.389c-15.888 2.7945-28.594 15.501-31.389 31.389h31.389zm0 31.389v6.5488c0-3.9044 2.6445-6.5488 6.5488-6.5488zm-32 32v32h32v-32zm160 32v32h32v-32zm-160 32v25.451c0 2.2329 0.23572 4.4134 0.61133 6.5488h31.389v-32zm32 32v31.389c2.1355 0.37561 4.3159 0.61133 6.5488 0.61133h25.451v-32h-25.451zm128-6.5488c0 3.9044-2.6445 6.5488-6.5488 6.5488h6.5488zm0 6.5488v31.389c15.888-2.7945 28.594-15.501 31.389-31.389zm-64 0v32h32v-32z" color="#000000" fill="#226abb" opacity=".27863" style="-inkscape-stroke:none"/><rect x="416" y="32" width="128" height="128" fill="#296098" style="paint-order:markers stroke fill"/><path d="m38.549 192c-21.079 0-38.549 17.47-38.549 38.549v114.9c0 21.079 17.47 38.549 38.549 38.549h114.9c21.079 0 38.549-17.47 38.549-38.549v-114.9c0-21.079-17.47-38.549-38.549-38.549zm0 32h114.9c3.9044 0 6.5488 2.6445 6.5488 6.5488v114.9c0 3.9044-2.6445 6.5488-6.5488 6.5488h-114.9c-3.9044 0-6.5488-2.6445-6.5488-6.5488v-114.9c0-3.9044 2.6445-6.5488 6.5488-6.5488z" color="#000000" fill="#6096d3" style="-inkscape-stroke:none"/><path d="m64 192v32h32v-32zm64 0v32h32v-31.389c-2.1355-0.37561-4.3159-0.61133-6.5488-0.61133zm32 32v32h32v-25.451c0-2.2329-0.23572-4.4134-0.61133-6.5488zm-128-31.389c-15.888 2.7945-28.594 15.501-31.389 31.389h31.389zm0 31.389v6.5488c0-3.9044 2.6445-6.5488 6.5488-6.5488zm-32 32v32h32v-32zm160 32v32h32v-32zm-160 32v25.451c0 2.2329 0.23572 4.4134 0.61133 6.5488h31.389v-32zm32 32v31.389c2.1355 0.37561 4.3159 0.61133 6.5488 0.61133h25.451v-32h-25.451zm128-6.5488c0 3.9044-2.6445 6.5488-6.5488 6.5488h6.5488zm0 6.5488v31.389c15.888-2.7945 28.594-15.501 31.389-31.389zm-64 0v32h32v-32z" color="#000000" fill="#226abb" opacity=".27863" style="-inkscape-stroke:none"/><rect x="32" y="224" width="128" height="128" fill="#296098" style="paint-order:markers stroke fill"/><path d="m230.55 192c-21.079 0-38.549 17.47-38.549 38.549v114.9c0 21.079 17.47 38.549 38.549 38.549h114.9c21.079 0 38.549-17.47 38.549-38.549v-114.9c0-21.079-17.47-38.549-38.549-38.549zm0 32h114.9c3.9044 0 6.5488 2.6445 6.5488 6.5488v114.9c0 3.9044-2.6445 6.5488-6.5488 6.5488h-114.9c-3.9044 0-6.5488-2.6445-6.5488-6.5488v-114.9c0-3.9044 2.6445-6.5488 6.5488-6.5488z" color="#000000" fill="#6096d3" style="-inkscape-stroke:none"/><path d="m256 192v32h32v-32zm64 0v32h32v-31.389c-2.1355-0.37561-4.3159-0.61133-6.5488-0.61133zm32 32v32h32v-25.451c0-2.2329-0.23572-4.4134-0.61133-6.5488zm-128-31.389c-15.888 2.7945-28.594 15.501-31.389 31.389h31.389zm0 31.389v6.5488c0-3.9044 2.6445-6.5488 6.5488-6.5488zm-32 32v32h32v-32zm160 32v32h32v-32zm-160 32v25.451c0 2.2329 0.23572 4.4134 0.61133 6.5488h31.389v-32zm32 32v31.389c2.1355 0.37561 4.3159 0.61133 6.5488 0.61133h25.451v-32h-25.451zm128-6.5488c0 3.9044-2.6445 6.5488-6.5488 6.5488h6.5488zm0 6.5488v31.389c15.888-2.7945 28.594-15.501 31.389-31.389zm-64 0v32h32v-32z" color="#000000" fill="#226abb" opacity=".27863" style="-inkscape-stroke:none"/><rect x="224" y="224" width="128" height="128" fill="#296098" style="paint-order:markers stroke fill"/><g transform="translate(2e-4,6.6e-4)"><rect x="320" y="256" width="32" height="32" opacity=".25" style="paint-order:markers stroke fill"/><rect x="256" y="320" width="32" height="32" opacity=".25" style="paint-order:markers stroke fill"/><rect x="320" y="320" width="32" height="32" opacity=".25" style="paint-order:markers stroke fill"/><rect x="224" y="224" width="32" height="32" opacity=".25" style="paint-order:markers stroke fill"/><rect x="256" y="256" width="32" height="32" opacity=".25" style="paint-order:markers stroke fill"/><rect x="288" y="224" width="32" height="32" opacity=".25" style="paint-order:markers stroke fill"/><rect x="224" y="288" width="32" height="32" opacity=".25" style="paint-order:markers stroke fill"/><rect x="288" y="288" width="32" height="32" opacity=".25" style="paint-order:markers stroke fill"/></g><path d="m422.55 192c-21.079 0-38.549 17.47-38.549 38.549v114.9c0 21.079 17.47 38.549 38.549 38.549h114.9c21.079 0 38.549-17.47 38.549-38.549v-114.9c0-21.079-17.47-38.549-38.549-38.549zm0 32h114.9c3.9044 0 6.5488 2.6445 6.5488 6.5488v114.9c0 3.9044-2.6445 6.5488-6.5488 6.5488h-114.9c-3.9044 0-6.5488-2.6445-6.5488-6.5488v-114.9c0-3.9044 2.6445-6.5488 6.5488-6.5488z" color="#000000" fill="#6096d3" style="-inkscape-stroke:none"/><path d="m448 192v32h32v-32zm64 0v32h32v-31.389c-2.1355-0.37561-4.3159-0.61133-6.5488-0.61133zm32 32v32h32v-25.451c0-2.2329-0.23572-4.4134-0.61133-6.5488zm-128-31.389c-15.888 2.7945-28.594 15.501-31.389 31.389h31.389zm0 31.389v6.5488c0-3.9044 2.6445-6.5488 6.5488-6.5488zm-32 32v32h32v-32zm160 32v32h32v-32zm-160 32v25.451c0 2.2329 0.23572 4.4134 0.61133 6.5488h31.389v-32zm32 32v31.389c2.1355 0.37561 4.3159 0.61133 6.5488 0.61133h25.451v-32h-25.451zm128-6.5488c0 3.9044-2.6445 6.5488-6.5488 6.5488h6.5488zm0 6.5488v31.389c15.888-2.7945 28.594-15.501 31.389-31.389zm-64 0v32h32v-32z" color="#000000" fill="#226abb" opacity=".27863" style="-inkscape-stroke:none"/><rect x="416" y="224" width="128" height="128" fill="#296098" style="paint-order:markers stroke fill"/><path d="m38.549 384c-21.079 0-38.549 17.47-38.549 38.549v114.9c0 21.079 17.47 38.549 38.549 38.549h114.9c21.079 0 38.549-17.47 38.549-38.549v-114.9c0-21.079-17.47-38.549-38.549-38.549zm0 32h114.9c3.9044 0 6.5488 2.6445 6.5488 6.5488v114.9c0 3.9044-2.6445 6.5488-6.5488 6.5488h-114.9c-3.9044 0-6.5488-2.6445-6.5488-6.5488v-114.9c0-3.9044 2.6445-6.5488 6.5488-6.5488z" color="#000000" fill="#6096d3" style="-inkscape-stroke:none"/><path d="m64 384v32h32v-32zm64 0v32h32v-31.389c-2.1355-0.37561-4.3159-0.61133-6.5488-0.61133zm32 32v32h32v-25.451c0-2.2329-0.23572-4.4134-0.61133-6.5488zm-128-31.389c-15.888 2.7945-28.594 15.501-31.389 31.389h31.389zm0 31.389v6.5488c0-3.9044 2.6445-6.5488 6.5488-6.5488zm-32 32v32h32v-32zm160 32v32h32v-32zm-160 32v25.451c0 2.2329 0.23572 4.4134 0.61133 6.5488h31.389v-32zm32 32v31.389c2.1355 0.37561 4.3159 0.61133 6.5488 0.61133h25.451v-32h-25.451zm128-6.5488c0 3.9044-2.6445 6.5488-6.5488 6.5488h6.5488zm0 6.5488v31.389c15.888-2.7945 28.594-15.501 31.389-31.389zm-64 0v32h32v-32z" color="#000000" fill="#226abb" opacity=".27863" style="-inkscape-stroke:none"/><rect x="32" y="416" width="128" height="128" fill="#296098" style="paint-order:markers stroke fill"/><path d="m230.55 384c-21.079 0-38.549 17.47-38.549 38.549v114.9c0 21.079 17.47 38.549 38.549 38.549h114.9c21.079 0 38.549-17.47 38.549-38.549v-114.9c0-21.079-17.47-38.549-38.549-38.549zm0 32h114.9c3.9044 0 6.5488 2.6445 6.5488 6.5488v114.9c0 3.9044-2.6445 6.5488-6.5488 6.5488h-114.9c-3.9044 0-6.5488-2.6445-6.5488-6.5488v-114.9c0-3.9044 2.6445-6.5488 6.5488-6.5488z" color="#000000" fill="#6096d3" style="-inkscape-stroke:none"/><path d="m256 384v32h32v-32zm64 0v32h32v-31.389c-2.1355-0.37561-4.3159-0.61133-6.5488-0.61133zm32 32v32h32v-25.451c0-2.2329-0.23572-4.4134-0.61133-6.5488zm-128-31.389c-15.888 2.7945-28.594 15.501-31.389 31.389h31.389zm0 31.389v6.5488c0-3.9044 2.6445-6.5488 6.5488-6.5488zm-32 32v32h32v-32zm160 32v32h32v-32zm-160 32v25.451c0 2.2329 0.23572 4.4134 0.61133 6.5488h31.389v-32zm32 32v31.389c2.1355 0.37561 4.3159 0.61133 6.5488 0.61133h25.451v-32h-25.451zm128-6.5488c0 3.9044-2.6445 6.5488-6.5488 6.5488h6.5488zm0 6.5488v31.389c15.888-2.7945 28.594-15.501 31.389-31.389zm-64 0v32h32v-32z" color="#000000" fill="#226abb" opacity=".27863" style="-inkscape-stroke:none"/><rect x="224" y="416" width="128" height="128" fill="#296098" style="paint-order:markers stroke fill"/><g transform="translate(2e-4,6.6e-4)" clip-path="url(#f)"><rect x="216" y="23.999" width="32" height="32" opacity=".25" style="paint-order:markers stroke fill"/><rect x="280" y="23.999" width="32" height="32" opacity=".25" style="paint-order:markers stroke fill"/><rect x="216" y="87.999" width="32" height="32" opacity=".25" style="paint-order:markers stroke fill"/><rect x="248" y="55.999" width="32" height="32" opacity=".25" style="paint-order:markers stroke fill"/><rect x="280" y="87.999" width="32" height="32" opacity=".25" style="paint-order:markers stroke fill"/><rect x="312" y="55.999" width="32" height="32" opacity=".25" style="paint-order:markers stroke fill"/><rect x="248" y="120" width="32" height="32" opacity=".25" style="paint-order:markers stroke fill"/><rect x="312" y="120" width="32" height="32" opacity=".25" style="paint-order:markers stroke fill"/><rect x="216" y="152" width="32" height="32" opacity=".25" style="paint-order:markers stroke fill"/><rect x="280" y="152" width="32" height="32" opacity=".25" style="paint-order:markers stroke fill"/><rect x="344" y="23.999" width="32" height="32" opacity=".25" style="paint-order:markers stroke fill"/><rect x="344" y="87.999" width="32" height="32" opacity=".25" style="paint-order:markers stroke fill"/><rect x="344" y="152" width="32" height="32" opacity=".25" style="paint-order:markers stroke fill"/></g><g transform="translate(2e-4,6.6e-4)" clip-path="url(#e)"><rect x="400" y="15.999" width="32" height="32" opacity=".25" style="paint-order:markers stroke fill"/><rect x="464" y="15.999" width="32" height="32" opacity=".25" style="paint-order:markers stroke fill"/><rect x="400" y="79.999" width="32" height="32" opacity=".25" style="paint-order:markers stroke fill"/><rect x="432" y="47.999" width="32" height="32" opacity=".25" style="paint-order:markers stroke fill"/><rect x="464" y="79.999" width="32" height="32" opacity=".25" style="paint-order:markers stroke fill"/><rect x="496" y="47.999" width="32" height="32" opacity=".25" style="paint-order:markers stroke fill"/><rect x="432" y="112" width="32" height="32" opacity=".25" style="paint-order:markers stroke fill"/><rect x="496" y="112" width="32" height="32" opacity=".25" style="paint-order:markers stroke fill"/><rect x="528" y="15.999" width="32" height="32" opacity=".25" style="paint-order:markers stroke fill"/><rect x="528" y="79.999" width="32" height="32" opacity=".25" style="paint-order:markers stroke fill"/><rect x="528" y="144" width="32" height="32" opacity=".25" style="paint-order:markers stroke fill"/><rect x="400" y="144" width="32" height="32" opacity=".25" style="paint-order:markers stroke fill"/><rect x="464" y="144" width="32" height="32" opacity=".25" style="paint-order:markers stroke fill"/></g><g transform="translate(2e-4,6.6e-4)" clip-path="url(#a)"><rect x="8" y="200" width="32" height="32" opacity=".25" style="paint-order:markers stroke fill"/><rect x="72" y="200" width="32" height="32" opacity=".25" style="paint-order:markers stroke fill"/><rect x="8" y="264" width="32" height="32" opacity=".25" style="paint-order:markers stroke fill"/><rect x="40" y="232" width="32" height="32" opacity=".25" style="paint-order:markers stroke fill"/><rect x="72" y="264" width="32" height="32" opacity=".25" style="paint-order:markers stroke fill"/><rect x="104" y="232" width="32" height="32" opacity=".25" style="paint-order:markers stroke fill"/><rect x="40" y="296" width="32" height="32" opacity=".25" style="paint-order:markers stroke fill"/><rect x="104" y="296" width="32" height="32" opacity=".25" style="paint-order:markers stroke fill"/><rect x="8" y="328" width="32" height="32" opacity=".25" style="paint-order:markers stroke fill"/><rect x="72" y="328" width="32" height="32" opacity=".25" style="paint-order:markers stroke fill"/><rect x="136" y="200" width="32" height="32" opacity=".25" style="paint-order:markers stroke fill"/><rect x="136" y="264" width="32" height="32" opacity=".25" style="paint-order:markers stroke fill"/><rect x="136" y="328" width="32" height="32" opacity=".25" style="paint-order:markers stroke fill"/></g><g transform="translate(2e-4,6.6e-4)" clip-path="url(#d)"><rect x="504" y="248" width="32" height="32" opacity=".25" style="paint-order:markers stroke fill"/><rect x="440" y="312" width="32" height="32" opacity=".25" style="paint-order:markers stroke fill"/><rect x="504" y="312" width="32" height="32" opacity=".25" style="paint-order:markers stroke fill"/><rect x="408" y="216" width="32" height="32" opacity=".25" style="paint-order:markers stroke fill"/><rect x="440" y="248" width="32" height="32" opacity=".25" style="paint-order:markers stroke fill"/><rect x="472" y="216" width="32" height="32" opacity=".25" style="paint-order:markers stroke fill"/><rect x="408" y="280" width="32" height="32" opacity=".25" style="paint-order:markers stroke fill"/><rect x="472" y="280" width="32" height="32" opacity=".25" style="paint-order:markers stroke fill"/><rect x="536" y="216" width="32" height="32" opacity=".25" style="paint-order:markers stroke fill"/><rect x="536" y="280" width="32" height="32" opacity=".25" style="paint-order:markers stroke fill"/><rect x="408" y="344" width="32" height="32" opacity=".25" style="paint-order:markers stroke fill"/><rect x="472" y="344" width="32" height="32" opacity=".25" style="paint-order:markers stroke fill"/><rect x="536" y="344" width="32" height="32" opacity=".25" style="paint-order:markers stroke fill"/></g><g transform="translate(2e-4,6.6e-4)" clip-path="url(#b)"><rect x="112" y="432" width="32" height="32" opacity=".25" style="paint-order:markers stroke fill"/><rect x="48" y="496" width="32" height="32" opacity=".25" style="paint-order:markers stroke fill"/><rect x="112" y="496" width="32" height="32" opacity=".25" style="paint-order:markers stroke fill"/><rect x="16" y="400" width="32" height="32" opacity=".25" style="paint-order:markers stroke fill"/><rect x="48" y="432" width="32" height="32" opacity=".25" style="paint-order:markers stroke fill"/><rect x="80" y="400" width="32" height="32" opacity=".25" style="paint-order:markers stroke fill"/><rect x="16" y="464" width="32" height="32" opacity=".25" style="paint-order:markers stroke fill"/><rect x="80" y="464" width="32" height="32" opacity=".25" style="paint-order:markers stroke fill"/><rect x="144" y="400" width="32" height="32" opacity=".25" style="paint-order:markers stroke fill"/><rect x="144" y="464" width="32" height="32" opacity=".25" style="paint-order:markers stroke fill"/><rect x="16" y="528" width="32" height="32" opacity=".25" style="paint-order:markers stroke fill"/><rect x="80" y="528" width="32" height="32" opacity=".25" style="paint-order:markers stroke fill"/><rect x="144" y="528" width="32" height="32" opacity=".25" style="paint-order:markers stroke fill"/></g><g transform="translate(2e-4,6.6e-4)" clip-path="url(#c)"><rect x="296" y="424" width="32" height="32" opacity=".25" style="paint-order:markers stroke fill"/><rect x="232" y="488" width="32" height="32" opacity=".25" style="paint-order:markers stroke fill"/><rect x="296" y="488" width="32" height="32" opacity=".25" style="paint-order:markers stroke fill"/><rect x="200" y="392" width="32" height="32" opacity=".25" style="paint-order:markers stroke fill"/><rect x="232" y="424" width="32" height="32" opacity=".25" style="paint-order:markers stroke fill"/><rect x="264" y="392" width="32" height="32" opacity=".25" style="paint-order:markers stroke fill"/><rect x="200" y="456" width="32" height="32" opacity=".25" style="paint-order:markers stroke fill"/><rect x="264" y="456" width="32" height="32" opacity=".25" style="paint-order:markers stroke fill"/><rect x="200" y="520" width="32" height="32" opacity=".25" style="paint-order:markers stroke fill"/><rect x="264" y="520" width="32" height="32" opacity=".25" style="paint-order:markers stroke fill"/><rect x="328" y="520" width="32" height="32" opacity=".25" style="paint-order:markers stroke fill"/><rect x="328" y="392" width="32" height="32" opacity=".25" style="paint-order:markers stroke fill"/><rect x="328" y="456" width="32" height="32" opacity=".25" style="paint-order:markers stroke fill"/></g></svg>
