<?xml version="1.0" encoding="UTF-8"?>
<svg width="16" height="16" version="1.1" viewBox="0 0 16 16" xml:space="preserve" xmlns="http://www.w3.org/2000/svg"><title>© 2024 NinStar</title><linearGradient id="a" x2="0" y1="1" y2="15" gradientUnits="userSpaceOnUse"><stop stop-color="#ff5f5f" offset="0"/><stop stop-color="#e1da5b" offset=".5"/><stop stop-color="#5fff97" offset="1"/></linearGradient><path d="M13 2a1 1 0 0 0-1-1L4.754 3A1 1 0 0 0 4 4v5.55A2.5 2.5 0 1 0 6 12V4.756l5-1.428V6.5l2-1z" fill="url(#a)"/><g transform="matrix(1.2367 0 0 1.2367 -34.46 -5.3366)" fill="#8da5f3" fill-rule="evenodd" stroke-linecap="round" stroke-linejoin="round" stroke-width=".49941"><path d="m34.3 12.784a0.24973 0.24973 0 0 0-0.21264 0.18338l-0.55404 2.0776a0.24973 0.24973 0 0 0 0.30628 0.3053l0.69157-0.18728c0.44189 0.67174 1.1631 1.1367 1.9898 1.2446 1.1258 0.14702 2.2348-0.3939 2.8043-1.3724a0.49941 0.49941 0 0 0-0.18045-0.68279 0.49941 0.49941 0 0 0-0.68279 0.18045c-0.36695 0.63044-1.0802 0.98018-1.8113 0.8847-0.41922-0.05475-0.79374-0.24926-1.073-0.53745l0.33944-0.09169a0.24973 0.24973 0 0 0 0.1112-0.41748l-1.5236-1.5158a0.24973 0.24973 0 0 0-0.20484-0.0712z" color="#000000" style="-inkscape-stroke:none"/><path d="m39.213 13.924a0.24973 0.24973 0 0 0 0.21264-0.18338l0.55404-2.0776a0.24973 0.24973 0 0 0-0.30628-0.3053l-0.69157 0.18728c-0.44189-0.67174-1.1631-1.1367-1.9898-1.2446-1.1258-0.14702-2.2348 0.3939-2.8043 1.3724a0.49941 0.49941 0 0 0 0.18045 0.68279 0.49941 0.49941 0 0 0 0.68279-0.18045c0.36695-0.63044 1.0802-0.98018 1.8113-0.8847 0.41922 0.05474 0.79374 0.24926 1.073 0.53745l-0.33944 0.09169a0.24973 0.24973 0 0 0-0.1112 0.41748l1.5236 1.5158a0.24973 0.24973 0 0 0 0.20484 0.07121z" color="#000000" style="-inkscape-stroke:none"/></g></svg>
