<?xml version="1.0" encoding="UTF-8"?>
<svg width="16" height="16" version="1.1" viewBox="0 0 16 16" xml:space="preserve" xmlns="http://www.w3.org/2000/svg"><title>© 2024 NinStar</title><g transform="matrix(.72874 0 0 .72874 -35.009 -11.892)" stroke-width="1.3722"><path d="m67.573 24.839-3 4-3-4h2a3 3 0 0 0-3-3h-2v-2h2a5 5 0 0 1 5 5z" fill="#e0e0e0" stroke-width="1.3722"/><circle cx="53.413" cy="20.803" r="4" fill="#ffca5f" style="paint-order:markers stroke fill"/><path d="m50.413 29.79 3-4 3 4h-2a3 3 0 0 0 3 3h2v2h-2a5 5 0 0 1-5-5z" fill="#e0e0e0" stroke-width="1.3722"/><circle transform="scale(-1)" cx="-64.624" cy="-33.79" r="4" fill="#ffca5f" style="paint-order:markers stroke fill"/></g></svg>
