<?xml version="1.0" encoding="UTF-8"?>
<svg width="192" height="192" version="1.1" xmlns="http://www.w3.org/2000/svg"><title>© 2024 NinStar</title><path d="m38.549 0c-21.079 0-38.549 17.47-38.549 38.549v114.9c0 21.079 17.47 38.549 38.549 38.549h114.9c21.079 0 38.549-17.47 38.549-38.549v-114.9c0-21.079-17.47-38.549-38.549-38.549zm0 32h114.9c3.9044 0 6.5488 2.6445 6.5488 6.5488v114.9c0 3.9044-2.6445 6.5488-6.5488 6.5488h-114.9c-3.9044 0-6.5488-2.6445-6.5488-6.5488v-114.9c0-3.9044 2.6445-6.5488 6.5488-6.5488z" color="#000000" fill="#6096d3" style="-inkscape-stroke:none"/><path d="m64 0v32h32v-32zm64 0v32h32v-31.389c-2.1355-0.37561-4.3159-0.61133-6.5488-0.61133zm32 32v32h32v-25.451c0-2.2329-0.23572-4.4134-0.61133-6.5488zm-128-31.389c-15.888 2.7945-28.594 15.501-31.389 31.389h31.389zm0 31.389v6.5488c0-3.9044 2.6445-6.5488 6.5488-6.5488zm-32 32v32h32v-32zm160 32v32h32v-32zm-160 32v25.451c0 2.2329 0.23572 4.4134 0.61133 6.5488h31.389v-32zm32 32v31.389c2.1355 0.37561 4.3159 0.61133 6.5488 0.61133h25.451v-32h-25.451zm128-6.5488c0 3.9044-2.6445 6.5488-6.5488 6.5488h6.5488zm0 6.5488v31.389c15.888-2.7945 28.594-15.501 31.389-31.389zm-64 0v32h32v-32z" color="#000000" fill="#226abb" opacity=".27863" style="-inkscape-stroke:none"/><rect x="32" y="32" width="128" height="128" fill="#296098" style="paint-order:markers stroke fill"/><g opacity=".25"><rect x="32" y="32" width="32" height="32" style="paint-order:markers stroke fill"/><rect x="96" y="32" width="32" height="32" style="paint-order:markers stroke fill"/><rect x="32" y="96" width="32" height="32" style="paint-order:markers stroke fill"/><rect x="64" y="64" width="32" height="32" style="paint-order:markers stroke fill"/><rect x="96" y="96" width="32" height="32" style="paint-order:markers stroke fill"/><rect x="128" y="64" width="32" height="32" style="paint-order:markers stroke fill"/><rect x="64" y="128" width="32" height="32" style="paint-order:markers stroke fill"/><rect x="128" y="128" width="32" height="32" style="paint-order:markers stroke fill"/></g></svg>
