<?xml version="1.0" encoding="UTF-8"?>
<svg width="16" height="16" version="1.1" viewBox="0 0 16 16" xml:space="preserve" xmlns="http://www.w3.org/2000/svg"><path d="m8 4.0003c-1.6322 0-3.1424 0.87208-3.9585 2.2856a0.57141 0.57141 0 0 0 0.20869 0.78123 0.57141 0.57141 0 0 0 0.78123-0.20981c0.61289-1.0616 1.7428-1.7142 2.9686-1.7142 1.2258 0 2.3557 0.65266 2.9686 1.7142a0.57141 0.57141 0 0 0 0.78123 0.20981 0.57141 0.57141 0 0 0 0.20869-0.78123c-0.81614-1.4135-2.3263-2.2856-3.9585-2.2856zm0 2.2856c-1.0317 0-1.9405 0.69751-2.2075 1.6941a0.57141 0.57141 0 0 0 0.404 0.69974 0.57141 0.57141 0 0 0 0.69974-0.404c0.13458-0.50232 0.58375-0.84705 1.1037-0.84705 0.51998 0 0.96916 0.34474 1.1037 0.84705a0.57141 0.57141 0 0 0 0.69974 0.404 0.57141 0.57141 0 0 0 0.404-0.69974c-0.26703-0.99659-1.1758-1.6941-2.2075-1.6941zm0 2.2856c-0.31656 0-0.57141 0.25485-0.57141 0.57141v0.57141h-1.7142a2.2856 2.2856 0 0 0 1.1428 1.9798 2.2856 2.2856 0 0 0 2.2856 0 2.2856 2.2856 0 0 0 1.1428-1.9798h-1.7142v-0.57141c0-0.31656-0.25485-0.57141-0.57141-0.57141z" fill="#8eef97"/><path d="m3 1c-1.1046 0-2 0.89543-2 2v10c0 1.1046 0.89543 2 2 2h10c1.1046 0 2-0.89543 2-2v-10c0-1.1046-0.89543-2-2-2zm0 2h10v10h-10z" fill="#8eef97"/><title>© 2024 NinStar</title></svg>
